<?xml version="1.0" encoding="UTF-8" standalone="no"?>
<!-- Created with clker.com Auto tracing tool http://www.clker.com) -->

<svg
   xmlns:dc="http://purl.org/dc/elements/1.1/"
   xmlns:cc="http://creativecommons.org/ns#"
   xmlns:rdf="http://www.w3.org/1999/02/22-rdf-syntax-ns#"
   xmlns:svg="http://www.w3.org/2000/svg"
   xmlns="http://www.w3.org/2000/svg"
   xmlns:sodipodi="http://sodipodi.sourceforge.net/DTD/sodipodi-0.dtd"
   xmlns:inkscape="http://www.inkscape.org/namespaces/inkscape"
   width="514.15594"
   height="600"
   id="svg2"
   version="1.1"
   inkscape:version="0.48+devel r12862"
   sodipodi:docname="viper_black.svg">
  <title
     id="title4081">viper clipart</title>
  <metadata
     id="metadata18">
    <rdf:RDF>
      <cc:Work
         rdf:about="">
        <dc:format>image/svg+xml</dc:format>
        <dc:type
           rdf:resource="http://purl.org/dc/dcmitype/StillImage" />
        <dc:title>viper clipart</dc:title>
        <dc:date>01/14/2014</dc:date>
        <dc:creator>
          <cc:Agent>
            <dc:title>edited by Paul Sherman</dc:title>
          </cc:Agent>
        </dc:creator>
        <dc:rights>
          <cc:Agent>
            <dc:title>PD</dc:title>
          </cc:Agent>
        </dc:rights>
        <dc:publisher>
          <cc:Agent>
            <dc:title>WPClipart</dc:title>
          </cc:Agent>
        </dc:publisher>
        <dc:subject>
          <rdf:Bag>
            <rdf:li>viper</rdf:li>
            <rdf:li>clipart</rdf:li>
            <rdf:li>snake</rdf:li>
            <rdf:li>fangs</rdf:li>
          </rdf:Bag>
        </dc:subject>
        <cc:license
           rdf:resource="http://creativecommons.org/publicdomain/zero/1.0/" />
      </cc:Work>
      <cc:License
         rdf:about="http://creativecommons.org/publicdomain/zero/1.0/">
        <cc:permits
           rdf:resource="http://creativecommons.org/ns#Reproduction" />
        <cc:permits
           rdf:resource="http://creativecommons.org/ns#Distribution" />
        <cc:permits
           rdf:resource="http://creativecommons.org/ns#DerivativeWorks" />
      </cc:License>
    </rdf:RDF>
  </metadata>
  <defs
     id="defs16" />
  <sodipodi:namedview
     pagecolor="#ffffff"
     bordercolor="#666666"
     borderopacity="1"
     objecttolerance="10"
     gridtolerance="10"
     guidetolerance="10"
     inkscape:pageopacity="0"
     inkscape:pageshadow="2"
     inkscape:window-width="1464"
     inkscape:window-height="984"
     id="namedview14"
     showgrid="false"
     inkscape:zoom="3.3911353"
     inkscape:cx="251.46632"
     inkscape:cy="340.32598"
     inkscape:window-x="0"
     inkscape:window-y="0"
     inkscape:window-maximized="0"
     inkscape:current-layer="svg2"
     fit-margin-top="4"
     fit-margin-left="4"
     fit-margin-right="4"
     fit-margin-bottom="4" />
  <path
     style="fill:#ffffff;fill-rule:evenodd;stroke:#ffffff;stroke-width:0.5px;stroke-linecap:butt;stroke-linejoin:miter;stroke-opacity:1"
     d="m -1238.7846,-2526.4608 0,-540.5 462.50001,0 462.5,0 0,540.5 0,540.5 -462.5,0 -462.50001,0 z m 214.5,487 -38.5,0 0.2,-0.3 0.3,-0.2 0.3,-0.2 0.2,-0.3 0.2,-0.3 0.3,-0.2 0.5,-1 0.5,-1 0.5,-1.5 c 0.3333,-1 0.6667,-2.1667 1,-3.5 0.3333,-1.3333 5.5,-13.1667 15.5,-35.5 10,-22.3334 21.5,-46.1667 34.5,-71.5 13.00001,-25.3334 25.33334,-47.5 37.00001,-66.5 11.66667,-19 23.06667,-36.5667 34.2,-52.7 11.2,-16.2 17.63333,-25.5334 19.3,-28 1.66667,-2.5334 2.83333,-3.8667 3.5,-4 0.66667,-0.2 6.83333,-7.4 18.5,-21.6 11.66667,-14.1334 17.83333,-21.2667 18.5,-21.4 0.66667,-0.2 2.06667,-1.5334 4.2,-4 2.2,-2.5334 5.86667,-4.5334 11,-6 l 7.8,-2.3 1,-0.5 1,-0.5 0.2,-0.3 0.3,-0.2 0.3,-0.2 0.2,-0.3 1,-0.5 1,-0.5 0.2,-0.3 0.3,-0.2 0.3,0 0.2,0 -0.2,-2 -0.3,-2 -0.3,0.2 -0.2,0.3 -0.2,0.3 -0.3,0.2 -0.3,0.2 -0.2,0.3 -1,0.5 -1,0.5 -0.2,0.3 -0.3,0.2 -0.3,0.2 -0.2,0.3 -1,0.5 -1,0.5 -1,0.5 c -0.66667,0.3333 -1.66667,0.6666 -3,1 -1.33333,0.3333 -6,0.8333 -14,1.5 -8,0.6666 -14.5,0.5 -19.5,-0.5 -5,-1 -9.83333,-2.5 -14.5,-4.5 -4.66667,-2 -8.73333,-4.4334 -12.2,-7.3 -3.53333,-2.8 -7.06667,-6.6 -10.6,-11.4 l -5.2,-7.3 -0.2,-0.3 -0.3,-0.2 -0.5,-1 -0.5,-1 -0.5,-1.5 -0.5,-1.5 -0.3,-1.5 -0.2,-1.5 1,0.2 1,0.3 0.2,0.3 0.3,0.2 0.3,0.2 0.2,0.3 0.2,0.3 0.3,0.2 0.3,0.2 0.2,0.3 1,0.5 1,0.5 0.2,0.3 0.3,0.2 0.3,0.2 0.2,0.3 1,0.5 c 0.66667,0.3333 1.5,1 2.5,2 1,1 5.16667,3.1666 12.5,6.5 7.33333,3.3333 14.83333,5.1666 22.5,5.5 7.66667,0.3333 13.33333,-0.1667 17,-1.5 3.66667,-1.3334 7.16667,-3 10.5,-5 3.33333,-2 6.4,-4.4334 9.2,-7.3 2.86667,-2.8 4.3,-13.5334 4.3,-32.2 l 0,-67.5 c 0,-26.3334 0.83333,-42 2.5,-47 1.66667,-5 4.5,-10.6667 8.5,-17 4,-6.3334 7.23333,-10.6667 9.7,-13 2.53333,-2.3334 3.86667,-3.8334 4,-4.5 0.2,-0.6667 2.06667,-2.6 5.6,-5.8 3.46667,-3.1334 9.53333,-7.8667 18.2,-14.2 8.66667,-6.3334 20,-13 34,-20 14,-7 22.26667,-13.9334 24.8,-20.8 2.46667,-6.8 3.7,-13.2 3.7,-19.2 0,-6 -1,-11.1667 -3,-15.5 -2,-4.3334 -5.56667,-8.5667 -10.7,-12.7 -5.2,-4.2 -11.8,-7.6334 -19.8,-10.3 -8,-2.6667 -17,-4.5667 -27,-5.7 l -15,-1.8 0.2,-1.5 0.3,-1.5 0.5,-1.5 c 0.33333,-1 2.16667,-5.6667 5.5,-14 3.33333,-8.3334 6.5,-15.1667 9.5,-20.5 3,-5.3334 5.73333,-9.2667 8.2,-11.8 2.53333,-2.4667 6.46667,-5.2 11.8,-8.2 l 8,-4.5 3,-0.3 3,-0.2 0,-0.2 0,-0.3 1,-0.5 1,-0.5 0,-0.3 0,-0.2 -2,0.2 -2,0.3 -3,0.5 c -2,0.3333 -3.66667,0.6666 -5,1 -1.33333,0.3333 -3.66667,1.3333 -7,3 -3.33333,1.6666 -6.26667,3.7333 -8.8,6.2 -2.46667,2.5333 -6.53333,7.9666 -12.2,16.3 -5.66667,8.3333 -10,16.5 -13,24.5 -3,8 -6.16667,14.8333 -9.5,20.5 -3.33333,5.6666 -8.16667,11.6666 -14.5,18 -6.33333,6.3333 -13.6,12.4333 -21.8,18.3 -8.13333,5.8 -18.7,12.0333 -31.7,18.7 -13,6.6666 -25.66667,12.3333 -38,17 -12.33333,4.6666 -23,9.8333 -32,15.5 -9,5.6666 -14.66667,9.7333 -17,12.2 -2.33333,2.5333 -3.83333,3.8666 -4.5,4 -0.66667,0.2 -2.6,1.8666 -5.8,5 -3.13333,3.2 -6.13333,5.9666 -9.00001,8.3 -2.8,2.3333 -6.0333,5.7666 -9.7,10.3 -3.6667,4.4666 -11,8.3666 -22,11.7 l -16.5,5 -1.5,0.5 -1.5,0.5 3,0.3 c 2,0.1333 2.6,7.5333 1.8,22.2 -0.8667,14.6666 -0.8,27.6666 0.2,39 1,11.3333 3,22.6666 6,34 3,11.3333 6.1667,21 9.5,29 3.3333,8 5.1667,12.5 5.5,13.5 l 0.5,1.5 0.3,0.2 0.2,0.3 0.2,0.3 0.3,0.2 0.5,1 0.5,1 0.5,1 0.5,1 0,1.5 0,1.5 -0.3,-0.2 -0.2,-0.3 -0.2,-0.3 -0.3,-0.2 -0.3,-0.2 -0.2,-0.3 -0.2,-0.3 -0.3,-0.2 -0.3,-0.2 -0.2,-0.3 -0.2,-0.3 -0.3,-0.2 -0.3,-0.2 -0.2,-0.3 -0.2,-0.3 -0.3,-0.2 -0.3,-0.2 -0.2,-0.3 -0.2,-0.3 -0.3,-0.2 -0.3,-0.2 -0.2,-0.3 -0.2,-0.3 -0.3,-0.2 -0.3,-0.2 -0.2,-0.3 -0.2,-0.3 c -0.2,-0.1334 -0.8667,-0.5334 -2,-1.2 -1.2,-0.6667 -3.7333,-3.5 -7.6,-8.5 -3.8,-5 -8.2,-11.5 -13.2,-19.5 -5,-8 -9.5,-16.1667 -13.5,-24.5 -4,-8.3334 -7.6667,-18 -11,-29 -3.3333,-11 -5.9,-22.3334 -7.7,-34 -1.8667,-11.6667 -1.6333,-17.7667 0.7,-18.3 l 3.5,-0.7 2.5,-0.5 2.5,-0.5 -13.5,-0.5 c -9,-0.3334 -15.3333,-0.6667 -19,-1 -3.6667,-0.3334 -9.6667,-1.7334 -18,-4.2 -8.3333,-2.5334 -12.5,-4.3 -12.5,-5.3 l 0,-1.5 -1.5,0.2 -1.5,0.3 -0.2,0.3 -8.0728,-5.241 -0.7227,25.0501 c -0.3185,11.0408 -1.9439,27.8864 2.6091,37.4454 6.4567,13.5557 5.8864,25.2788 7.8864,33.9455 2,8.6666 3.1667,13.5 3.5,14.5 l 0.5,1.5 0.5,1 0.5,1 0.5,1 0.5,1 0,1 0,1 -0.3,-0.2 -0.2,-0.3 -0.2,-0.3 -0.3,-0.2 -0.3,-0.2 -0.2,-0.3 -0.2,-0.3 -0.3,-0.2 -0.3,-0.2 -0.2,-0.3 -0.2,-0.3 -0.3,-0.2 -0.5,-1 -0.5,-1 -0.3,-0.2 -0.2,-0.3 -0.2,-0.3 -0.3,-0.2 -7,-12 c -4.6667,-8 -9,-18 -13,-30 -4,-12 -7.5,-25.1667 -10.5,-39.5 -3,-14.3334 -4.7334,-26.2334 -5.2,-35.7 -0.5334,-9.5334 -0.8,-14.6334 -0.8,-15.3 0,-0.6667 -1.6,-2.7667 -4.8,-6.3 -3.1334,-3.4667 -5.7,-7.2 -7.7,-11.2 -2,-4 -3.3334,-7.1667 -4,-9.5 -0.6667,-2.3334 -0.8334,-6.1667 -0.5,-11.5 0.3333,-5.3334 1.6666,-10.6667 4,-16 2.3333,-5.3334 5.2666,-10.1667 8.8,-14.5 3.4666,-4.3334 6.4666,-7.6667 9,-10 2.4666,-2.3334 6.7,-8 12.7,-17 6,-9 11.5,-18.5 16.5,-28.5 5,-10 9.5,-21.3334 13.5,-34 4,-12.6667 7.1667,-23.8334 9.5,-33.5 2.3333,-9.6667 6.1667,-19.8334 11.5,-30.5 5.3333,-10.6667 11,-19.6667 17,-27 6,-7.3334 11.9,-13.7334 17.7,-19.2 5.8667,-5.5334 12.8,-10.8 20.8,-15.8 8,-5 16.1667,-9.3334 24.5,-13 8.3333,-3.6667 18.3333,-7 30.00001,-10 11.66667,-3 25.33333,-5.3334 41,-7 15.66667,-1.6667 31,-4.5 46,-8.5 15,-4 30.5,-9.3334 46.5,-16 16,-6.6667 29.73333,-13.4334 41.2,-20.3 11.53333,-6.8 21.86667,-13.9334 31,-21.4 9.2,-7.5334 20.8,-14.6334 34.8,-21.3 14,-6.6667 28,-12 42,-16 14,-4 26.16667,-6.8334 36.5,-8.5 10.33333,-1.6667 25.83333,-2.3334 46.5,-2 20.66667,0.3333 39,2.1666 55,5.5 16,3.3333 31.33333,7.8333 46,13.5 14.66667,5.6666 28,11.8333 40,18.5 12,6.6666 19.66667,11.1 23,13.3 3.33333,2.1333 5,3.5333 5,4.2 0,0.6666 0.83333,1.3333 2.5,2 1.66667,0.6666 3.66667,2.2666 6,4.8 2.33333,2.4666 4.16667,4.1333 5.5,5 1.33333,0.8 2.5,1.9333 3.5,3.4 1,1.5333 1.83333,2.4 2.5,2.6 0.66667,0.1333 5.4,5.7 14.2,16.7 8.86667,11 16.63333,21.8333 23.3,32.5 6.66667,10.6666 12.83333,22.6666 18.5,36 5.66667,13.3333 10.16667,25.5 13.5,36.5 3.33333,11 6,22.5 8,34.5 2,12 3.33333,22.3333 4,31 0.66667,8.6666 0.83333,21.5 0.5,38.5 -0.33333,17 -1.16667,31.5 -2.5,43.5 -1.33333,12 -3.66667,26.3333 -7,43 -3.33333,16.6666 -7.76667,33.9333 -13.3,51.8 -5.46667,17.8 -12.6,36.6 -21.4,56.4 -8.86667,19.8666 -18.46667,39.3 -28.8,58.3 -10.33333,19 -20.66667,36.3333 -31,52 -10.33333,15.6666 -17.26667,26.1666 -20.8,31.5 -3.46667,5.3333 -5.53333,8 -6.2,8 -0.66667,0 -3.73333,3.6666 -9.2,11 -5.53333,7.3333 -13.53333,17 -24,29 -10.53333,12 -27.4,28.1666 -50.6,48.5 -23.13333,20.3333 -34.8,30.8333 -35,31.5 -0.13333,0.6666 -1.93333,2.3333 -5.4,5 -3.53333,2.6666 -19.3,17.6666 -47.3,45 -28,27.3333 -44.23333,43.6666 -48.7,49 -4.53333,5.3333 -8.06667,9.1666 -10.6,11.5 -2.46667,2.3333 -3.93333,4 -4.4,5 -0.53333,1 -2.06667,2.6666 -4.6,5 -2.46667,2.3333 -6.86667,7.3333 -13.2,15 -6.33333,7.6666 -9.6,11.8333 -9.8,12.5 -0.13333,0.6666 -0.8,1.5 -2,2.5 -1.13333,1 -4.36667,5.5 -9.7,13.5 -5.33333,8 -10.23333,17.4 -14.7,28.2 -4.53333,10.8667 -39.8,16.6333 -105.8,17.3 -66,0.6667 -111.83333,1 -137.50001,1 z"
     id="path4"
     inkscape:connector-curvature="0"
     sodipodi:nodetypes="cccccccccscccccccccsssssccccccccccccccccccccccccccccccccccccssssscccccccccccccccccccccccccccsssssscsssscccsscsscsccccssscscccccccccccssscsssscssscccccscccccssssccccccccccccccccccccccccccccccccccccccccssscccccsscscccccsssscccccccccccccccccccccccccssscscssssccsssssscssssssccssssssscsscccccssssssssccsscscccccsccccsccscss" />
  <g
     id="g4102"
     transform="matrix(0.60775082,0,0,0.60775082,-23.702553,-28.615904)">
    <path
       sodipodi:nodetypes="scccccccccssssscccscscccccsssccccccccssscsssscssscccccsccsscccssccsccccccsscscssssccsssssscssssssccssssssscsscccccssssssssccsscscccccsccccsccscssccccccccccccccccccccccccsccscssscsssc"
       inkscape:connector-curvature="0"
       id="path6"
       d="m 214.5,1027.5 -38.5,0 0.2,-0.3 0.3,-0.2 0.3,-0.2 0.2,-0.3 0.2,-0.3 0.3,-0.2 0.5,-1 0.5,-1 0.5,-1.5 c 0.33333,-1 0.66667,-2.1667 1,-3.5 0.33333,-1.3333 5.5,-13.1667 15.5,-35.5 10,-22.33333 21.5,-46.16667 34.5,-71.5 13,-25.33333 25.33333,-47.5 37,-66.5 11.66667,-19 23.06667,-36.56667 34.2,-52.7 17.96562,-26.87713 41.87609,-54.2538 59.8,-75 0,0 55.6069,-47.88966 60.2,-52 5.86667,-4.2 16.13333,-11.96667 30.8,-23.3 14.66667,-11.33333 23.16667,-18.23333 25.5,-20.7 2.33333,-2.53333 4.16667,-3.96667 5.5,-4.3 1.33333,-0.33333 2.06667,-0.83333 2.2,-1.5 0.2,-0.66667 6.86667,-6.93333 20,-18.8 13.2,-11.8 25.06667,-23.46667 35.6,-35 10.46667,-11.46667 16.93333,-18.36667 19.4,-20.7 2.53333,-2.33333 7.4,-8.5 14.6,-18.5 7.13333,-10 14.03333,-20.83333 20.7,-32.5 6.66667,-11.66667 11.83333,-23 15.5,-34 3.66667,-11 5.5,-23 5.5,-36 0,-13 -1.01479,-19.79978 -4.01479,-29.13311 -1.57234,-7.64402 -16.72906,-31.7864 -25.39647,-37.31479 -4,-2.46667 -21.28212,-16.31545 -25.64503,-19.71192 C 556.49228,332.59742 535.08865,320.02404 516.2,309.8 c -10.13333,-5.53333 -19.7,-8.86667 -28.7,-10 L 474,298 l -2,0.2 -2,0.3 -3,0.5 c -2,0.33333 -3.66667,0.66667 -5,1 -1.33333,0.33333 -3.66667,1.33333 -7,3 -3.33333,1.66667 -6.26667,3.73333 -8.8,6.2 -2.46667,2.53333 -6.53333,7.96667 -12.2,16.3 -5.66667,8.33333 -10,16.5 -13,24.5 -3,8 -6.16667,14.83333 -9.5,20.5 -3.33333,5.66667 -8.16667,11.66667 -14.5,18 -6.33333,6.33333 -13.6,12.43333 -21.8,18.3 -8.13333,5.8 -18.7,12.03333 -31.7,18.7 -13,6.66667 -25.66667,12.33333 -38,17 -12.33333,4.66667 -23,9.83333 -32,15.5 -9,5.66667 -14.66667,9.73333 -17,12.2 -2.33333,2.53333 -3.83333,3.86667 -4.5,4 -0.66667,0.2 -2.6,1.86667 -5.8,5 -3.13333,3.2 -6.13333,5.96667 -9,8.3 -2.8,2.33333 -6.03333,5.76667 -9.7,10.3 -3.66667,4.46667 -12.6791,4.97453 -22,11.7 l -14.35645,10.35887 c -0.0364,0.4365 -1.37356,22.064 -1.37356,22.064 -0.86667,14.66667 2.35312,30.63055 3.39444,38.28201 0.91444,6.71918 3.3959,22.87108 7.05089,34.01044 4.41511,13.45599 6.8429,23.09134 10.17623,28.6149 4.736,9.48218 27.94008,47.51209 24.89538,46.33814 -17.10126,-12.45526 -42.84745,-49.57538 -50.70204,-61.46081 -5,-8 -9.79924,-15.83928 -13.85378,-24.14622 -6.83021,-13.99376 -8.02044,-18.70755 -11.35377,-29.70755 -3.33333,-11 -8.37644,-26.93244 -8.76133,-34.35378 C 149.45628,532.45684 149.5,519 149.5,519 c -8.86694,-1.57749 -15.33333,-0.66667 -19,-1 -3.66667,-0.33333 -9.66667,-1.73333 -18,-4.2 -8.33333,-2.53333 -14.46092,-4.85727 -18.62442,-7.74977 0,0 -3.605126,14.75254 -3.775116,17.22489 -1,11 3.732869,49.11012 7.461746,58.59814 1.957186,17.77226 19.1364,59.18663 19.1364,59.18663 0,0 -18.810946,-18.14464 -25.423494,-38.67233 -4.666667,-8 -7.775116,-15.55023 -11.775116,-27.55023 -4,-12 -11.174652,-27.004 -12.949768,-38.88756 -2.163443,-14.48323 -4.733333,-15.82182 -5.2,-25.28849 C 60.816899,501.12795 63,483.16667 63,482.5 c 0,-0.66667 -1.6,-2.76667 -4.8,-6.3 -3.133333,-3.46667 -5.7,-7.2 -7.7,-11.2 -2,-4 -3.333333,-7.16667 -4,-9.5 -0.666667,-2.33333 -0.833333,-6.16667 -0.5,-11.5 0.333333,-5.33333 1.666667,-10.66667 4,-16 2.333333,-5.33333 5.266667,-10.16667 8.8,-14.5 3.466667,-4.33333 6.466667,-7.66667 9,-10 2.466667,-2.33333 6.7,-8 12.7,-17 6,-9 11.5,-18.5 16.5,-28.5 5,-10 9.5,-21.33333 13.5,-34 4,-12.66667 7.16667,-23.83333 9.5,-33.5 2.33333,-9.66667 6.16667,-19.83333 11.5,-30.5 5.33333,-10.66667 11,-19.66667 17,-27 6,-7.33333 11.9,-13.73333 17.7,-19.2 5.86667,-5.53333 12.8,-10.8 20.8,-15.8 8,-5 16.16667,-9.33333 24.5,-13 8.33333,-3.66667 18.33333,-7 30,-10 11.66667,-3 25.33333,-5.33333 41,-7 15.66667,-1.66667 31,-4.5 46,-8.5 15,-4 30.5,-9.33333 46.5,-16 16,-6.66667 29.73333,-13.43333 41.2,-20.3 11.53333,-6.8 21.86667,-13.93333 31,-21.4 9.2,-7.533333 20.8,-14.633333 34.8,-21.3 14,-6.666667 28,-12 42,-16 14,-4 26.16667,-6.833333 36.5,-8.5 10.33333,-1.666667 25.83333,-2.333333 46.5,-2 20.66667,0.333333 39,2.166667 55,5.5 16,3.333333 31.33333,7.833333 46,13.5 14.66667,5.666667 28,11.833333 40,18.5 12,6.666667 19.66667,11.1 23,13.3 3.33333,2.13333 5,3.53333 5,4.2 0,0.66667 0.83333,1.33333 2.5,2 1.66667,0.66667 3.66667,2.26667 6,4.8 2.33333,2.46667 4.16667,4.13333 5.5,5 1.33333,0.8 2.5,1.93333 3.5,3.4 1,1.53333 1.83333,2.4 2.5,2.6 0.66667,0.13333 5.4,5.7 14.2,16.7 8.86667,11 16.63333,21.83333 23.3,32.5 6.66667,10.66667 12.83333,22.66667 18.5,36 5.66667,13.33333 10.16667,25.5 13.5,36.5 3.33333,11 6,22.5 8,34.5 2,12 3.33333,22.33333 4,31 0.66667,8.66667 0.83333,21.5 0.5,38.5 -0.33333,17 -1.16667,31.5 -2.5,43.5 -1.33333,12 -3.66667,26.33333 -7,43 -3.33333,16.66667 -7.76667,33.93333 -13.3,51.8 -5.46667,17.8 -12.6,36.6 -21.4,56.4 -8.86667,19.86667 -18.46667,39.3 -28.8,58.3 -10.33333,19 -20.66667,36.33333 -31,52 -10.33333,15.66667 -17.26667,26.16667 -20.8,31.5 -3.46667,5.33333 -5.53333,8 -6.2,8 -0.66667,0 -3.73333,3.66667 -9.2,11 -5.53333,7.33333 -13.53333,17 -24,29 -10.53333,12 -27.4,28.16667 -50.6,48.5 -23.13333,20.33333 -34.8,30.83333 -35,31.5 -0.13333,0.66667 -1.93333,2.33333 -5.4,5 -3.53333,2.66667 -19.3,17.66667 -47.3,45 -28,27.33333 -44.23333,43.66667 -48.7,49 -4.53333,5.33333 -8.06667,9.16667 -10.6,11.5 -2.46667,2.33333 -3.93333,4 -4.4,5 -0.53333,1 -2.06667,2.66667 -4.6,5 -2.46667,2.33333 -6.86667,7.33333 -13.2,15 -6.33333,7.66667 -9.6,11.83333 -9.8,12.5 -0.13333,0.66667 -0.8,1.5 -2,2.5 -1.13333,1 -4.36667,5.5 -9.7,13.5 -5.33333,8 -10.23333,17.4 -14.7,28.2 -4.53333,10.8667 -39.8,16.6333 -105.8,17.3 -66,0.6667 -111.83333,1 -137.5,1 z m -16.3,-595.7 -4.7,-6.8 -0.5,-1 -0.5,-1 -0.3,-0.2 -0.2,-0.3 0.2,-0.3 0.3,-0.2 0.3,-0.2 0.2,-0.3 0.2,-0.3 0.3,-0.2 0.5,-1 0.5,-1 0.5,-1 0.5,-1 0.3,-0.2 0.2,-0.3 1,0 1,0 1,0.5 1,0.5 c 4.90078,2.74122 18.99625,15.64961 23.1514,18.41971 24.3431,24.29669 -11.04291,-27.65885 -15.09929,-36.84718 C 206.85211,397.9392 207.5,395.5 208.5,393.5 c 1,-2 4.56667,-9.1 10.7,-21.3 6.2,-12.13333 10.4,-18.26667 12.6,-18.4 2.13333,-0.2 6.03333,1.03333 11.7,3.7 5.66667,2.66667 10.9,5.9 15.7,9.7 4.86667,3.86667 8.63333,7.96667 11.3,12.3 2.66667,4.33333 4,10.33333 4,18 0,7.66667 -1.16667,14 -3.5,19 -2.33333,5 -6.06667,10.1 -11.2,15.3 -5.2,5.13333 -10.13333,8.86667 -14.8,11.2 -4.66667,2.33333 -10.33333,3.66667 -17,4 -6.66667,0.33333 -12.5,-1 -17.5,-4 -5,-3 -9.1,-6.73333 -12.3,-11.2 z"
       style="fill:#000000;fill-opacity:1;fill-rule:evenodd;stroke:#bbbcc0;stroke-width:0.5px;stroke-linecap:butt;stroke-linejoin:miter;stroke-opacity:1" />
    <path
       sodipodi:nodetypes="cccccccccccccccccsccscssscsssc"
       inkscape:connector-curvature="0"
       id="path10"
       d="m 198.2,431.8 -4.7,-6.8 -0.5,-1 -0.5,-1 -0.3,-0.2 -0.2,-0.3 0.2,-0.3 0.3,-0.2 0.3,-0.2 0.2,-0.3 0.2,-0.3 0.3,-0.2 1,-2 1,-2 c 0.48181,-0.47173 0.97846,-0.48018 1.5,-0.5 8.06778,2.596 37.46054,26.33308 37.46054,26.33308 C 225.76325,425.69448 210.4665,401.28219 208.8,398.2 c -1.2,-1.13333 -1.3,-2.7 -0.3,-4.7 1,-2 4.56667,-9.1 10.7,-21.3 6.2,-12.13333 10.4,-18.26667 12.6,-18.4 2.13333,-0.2 6.03333,1.03333 11.7,3.7 5.66667,2.66667 10.9,5.9 15.7,9.7 4.86667,3.86667 8.63333,7.96667 11.3,12.3 2.66667,4.33333 4,10.33333 4,18 0,7.66667 -1.16667,14 -3.5,19 -2.33333,5 -6.06667,10.1 -11.2,15.3 -5.2,5.13333 -10.13333,8.86667 -14.8,11.2 -4.66667,2.33333 -10.33333,3.66667 -17,4 -6.66667,0.33333 -12.5,-1 -17.5,-4 -5,-3 -9.1,-6.73333 -12.3,-11.2 z"
       style="fill:#fefefe;fill-rule:evenodd;stroke:#fefefe;stroke-width:0.5px;stroke-linecap:butt;stroke-linejoin:miter;stroke-opacity:1" />
    <path
       sodipodi:nodetypes="cccccccccccccc"
       inkscape:connector-curvature="0"
       id="path12"
       d="m 489.57419,291.15404 c 6,0.46667 15.54354,3.67177 24.34354,7.47177 21.06957,9.54806 4.90045,99.01055 4.90045,99.01055 -25.65137,119.37741 -93.731,180.84054 -93.731,180.84054 0,0 -44.95569,54.06457 -61.51322,60.91758 0,0 -35.93921,21.14105 -48.31433,20.98074 L 286.581,658.05385 c 0,0 -12.29066,-5.87814 -24.15924,-13.49767 l 38.26698,-11.64619 c 52.5537,-19.74856 96.88511,-84.90696 96.88511,-84.90696 0,0 47.35391,-58.12418 43.74314,-126.07729 l -24.18337,-57.43326 c -2.13603,-12.2261 -3.8663,-17.50783 -3.20781,-20.80028 18.54592,-39.30373 35.85825,-56.11629 75.64838,-52.53816 z"
       style="fill:#000000;fill-opacity:1;fill-rule:evenodd;stroke:#bcbcc0;stroke-width:0;stroke-linecap:butt;stroke-linejoin:miter;stroke-miterlimit:4;stroke-opacity:1;stroke-dasharray:none" />
  </g>
</svg>
